<svg version="1.2" xmlns="http://www.w3.org/2000/svg" viewBox="0 0 599 386" width="599" height="386">
	<style>
		.s0 { fill: #db0d80;stroke: #ffffff;stroke-miterlimit:10;stroke-width: .4 } 
		.s1 { fill: #ffffff } 
	</style>
	<g id="Layer 1">
		<g id="&lt;Group&gt;">
			<g id="&lt;Group&gt;">
				<path id="&lt;Path&gt;" class="s0" d="m158.3 34.71c-38.93 22.95-54.17 74.02-54.17 74.02l-90.39 260.8h385.6c0 0 39.16 3.08 66.8-20.98 21.45-18.64 30.03-46.86 30.03-46.86l88.09-285.35h-350.26c0 0-44.91 0.2-75.7 18.37z"/>
				<path id="&lt;Path&gt;" class="s1" d="m407.09 73.96c0 0-80.05 12.89-168.49 80.02-44.99 33.94-33.68 85.53 123.73 11.57 0 0-96.87 30.8-101.87 8.69-4.99-22.11 87.37-77.39 146.63-100.28z"/>
				<path id="&lt;Path&gt;" class="s1" d="m253.91 266.52c0 0 79.88-13.92 167.44-82.18 44.57-34.58 32.57-85.98-123.83-9.96 0 0 96.43-32.09 101.72-10.04 5.3 22.08-86.38 78.51-145.33 102.18z"/>
				<path id="&lt;Compound Path&gt;" fill-rule="evenodd" class="s1" d="m355.55 105.61c6.45 0 11.72 5.26 11.72 11.71 0 6.45-5.27 11.73-11.72 11.73-6.46 0-11.73-5.28-11.73-11.73 0-6.45 5.27-11.71 11.73-11.71zm0 20.91c5.05 0 9.16-4.15 9.16-9.2 0-5.04-4.11-9.17-9.16-9.17-5.08 0-9.2 4.13-9.2 9.17 0 5.05 4.12 9.2 9.2 9.2z"/>
				<path id="&lt;Compound Path&gt;" fill-rule="evenodd" class="s1" d="m356.91 110.06l2.16 0.34 1.91 2 0.26 1.39-0.5 1.9-1.54 1.2 1.4 1.24 0.28 1.89v0.85l0.04 1.2 0.51 0.77v0.33h-3.01l-0.21-0.68-0.1-1.13v-1.26l-0.46-1.65-1.66-0.44h-2.83v5.16h-2.7v-13.11zm-3.75 2.26v3.47h3.09l1.4-0.22 0.81-1.45-0.78-1.57-1.32-0.23z"/>
				<path id="&lt;Path&gt;" class="s1" d="m113.37 287.66l-0.56-2.43-1.17-2.69c-1.08-2.39-2.82-4.52-5.16-6.48-2.32-1.96-5.42-2.92-9.4-2.92h-0.37-0.39c-2.28 0.08-4.49 0.8-6.54 1.98q-3.14 1.89-3.63 5.5c-0.15 1.34-0.05 2.44 0.24 3.37l2.02 2.56 2.52 1.62c0.99 0.57 2.19 1.14 3.6 1.78l12.88 5.65 1.87 1.14 2.14 1.66c1.34 1.16 2.44 2.75 3.39 4.67 0.99 1.95 1.27 4.31 0.94 7.06l-0.54 2.29-0.92 2.46c-1.46 2.91-4.12 5.6-7.91 8.01-3.77 2.39-9 3.61-15.64 3.61q-3.3 0-5.73-0.45c-1.62-0.3-2.96-0.58-4.19-0.89-1.28-0.27-2.32-0.55-3.18-0.81l-2.41-0.46-1.94 0.67-1.03 1.51-0.05 0.23-0.06 0.2h-2.68l2.47-19.45h2.72l0.07 1.21 0.23 1.15q1.06 5.49 4.75 10.02 3.77 4.54 11.7 4.53c2.93 0 5.25-0.42 6.98-1.36 1.66-0.91 2.92-1.96 3.84-3.13l1.46-2.65 0.38-1.65q0.41-3.37-1.54-5.23-2.03-1.84-5.31-3.34l-1.1-0.53-1.17-0.49-5.89-2.6-1.95-0.8-1.83-0.84c-5.53-2.99-8.6-5.84-9.27-8.56-0.64-2.71-0.83-4.9-0.64-6.54 0.12-0.82 0.33-1.81 0.72-3.04q0.54-1.75 1.7-3.58c1.45-2.22 3.77-4.23 6.87-6.13 3.11-1.87 7.51-2.78 13.2-2.78 1.83 0 3.54 0.14 4.98 0.38 1.45 0.25 2.73 0.53 3.86 0.88q1.71 0.54 2.97 0.93l2.36 0.38 2.19-0.76 1.17-1.91 2.8-0.07-2.18 17.12z"/>
				<path id="&lt;Path&gt;" class="s1" d="m169.77 290.54l-0.73 0.2-0.71 0.1-2.48 0.49-2.08 0.69-1.21 0.57-1.17 0.69-2.39 1.58-2.99 2.12-0.65 0.49-0.72 0.47-1.98 1.55-1.68 1.41 15.26 21.06 0.82 0.93 0.76 0.34h0.34 0.27l-0.27 1.78h-21.66l0.22-1.91 0.75 0.07 0.82-0.07 1.68-0.46 0.83-0.93-0.24-1.07-0.67-1.21-0.25-0.45-0.3-0.38-0.16-0.21-0.15-0.24-7.45-10.63-2.36 1.89-1.16 8.98c-0.24 1.82-0.1 2.96 0.3 3.57 0.42 0.56 1.75 1 3.91 1.27l-0.21 1.78h-22.17l0.26-1.91c1.44 0.07 2.46-0.21 3.15-0.86l1.5-2.24 0.27-0.8 0.09-0.73 5.16-40.26 0.03-0.84-0.17-1.31-1.06-1.61c-0.58-0.5-1.45-0.71-2.7-0.71l0.29-1.98h17.32l-4.37 33.98 13.16-10.12 0.25-0.12 0.37-0.23 0.41-0.51 0.34-0.38 0.65-0.86 0.28-0.64-0.46-1.3c-0.36-0.22-1.14-0.47-2.34-0.66l-1.06-0.14-1.29-0.17 0.2-1.87h19.86z"/>
				<path id="&lt;Compound Path&gt;" class="s1" d="m193.35 323.1l-0.23 1.91h-22.16l0.24-1.91 0.54-0.02 0.62-0.12c1.33-0.29 2.35-0.65 3.02-1.18q1.02-0.76 1.32-3.31l2.96-23.23c0.27-1.75-0.02-2.87-0.67-3.36-0.67-0.52-1.92-0.94-3.63-1.2l0.24-1.98h17.8l-3.83 29.93c-0.16 1.27-0.02 2.27 0.46 3.08q0.66 1.23 3.32 1.52zm-12.17-46.37q0.25-2.46 2.56-4.22c1.48-1.23 3.3-1.79 5.38-1.79 2.01 0 3.59 0.56 4.85 1.79q1.83 1.77 1.52 4.29c-0.23 1.72-1.09 3.17-2.61 4.31-1.53 1.19-3.31 1.73-5.29 1.73q-3.15 0-4.97-1.77c-1.21-1.14-1.72-2.59-1.48-4.27z"/>
				<path id="&lt;Path&gt;" class="s1" d="m219.02 323.14l-0.22 1.87h-22.13l0.22-1.87c1.44 0.04 2.5-0.25 3.3-0.9l1.64-2.24 0.26-0.82 0.17-0.71 5.09-40.28 0.07-0.82-0.25-1.31-1.14-1.6c-0.6-0.51-1.52-0.72-2.81-0.72l0.23-2h17.59l-5.95 46.65v0.26l-0.05 0.22c-0.09 1.13 0.18 2.11 0.68 2.98 0.57 0.93 1.63 1.38 3.3 1.38z"/>
				<path id="&lt;Path&gt;" class="s1" d="m244.84 323.14l-0.27 1.87h-22.11l0.2-1.87c1.43 0.04 2.51-0.25 3.31-0.9l1.64-2.24 0.27-0.82 0.12-0.71 5.13-40.28 0.02-0.82-0.22-1.31-1.12-1.6c-0.62-0.51-1.54-0.72-2.84-0.72l0.26-2h17.58l-5.94 46.65-0.03 0.26-0.03 0.22c-0.08 1.13 0.17 2.11 0.7 2.98 0.55 0.93 1.62 1.38 3.3 1.38z"/>
				<path id="&lt;Path&gt;" class="s1" d="m315.29 323.05l-0.24 1.96h-33.04l0.21-1.96 0.46 0.05 0.48-0.05q4.58-0.35 6.47-1.38 1.91-1.04 2.5-5.8l5.3-41.6-2.95 0.28-3.14 0.35q-4.08 0.7-7.83 3.36-3.78 2.65-5.65 9.4l-2.7-0.07 2.3-15.85h55.57l-1.83 15.85h-2.68c-0.15-4.41-1.19-7.49-3.24-9.27q-3-2.65-6.81-3.36l-3.07-0.41-2.98-0.21-5.27 41.47q-0.62 4.97 1.04 5.98c1.1 0.67 3.26 1.09 6.38 1.26l0.36 0.07h0.36z"/>
				<path id="&lt;Compound Path&gt;" fill-rule="evenodd" class="s1" d="m360.6 315.1l2.1 1.1-1.46 1.63-1.46 1.37q-4.09 3.88-8.04 5.36c-2.59 1-5.48 1.49-8.63 1.49h-0.29q-6.9-0.1-12.16-4.65c-3.45-3.05-4.76-7.85-3.92-14.54 0.77-5.84 3.2-10.47 7.35-13.88 4.12-3.42 8.86-5.19 14.17-5.19 4.73 0 8.23 1 10.35 3.04 2.16 1.97 3.58 4.23 4.25 6.62q0.7 2.46 0.74 4.73c0.02 1.55 0 2.74-0.05 3.64h-23.32l-0.11 1.5-0.04 1.44c0 2.92 0.66 5.59 1.91 8.06 1.2 2.41 3.71 3.66 7.47 3.66 1.86 0 3.51-0.36 4.94-0.97 1.45-0.68 2.65-1.4 3.71-2.19l1.41-1.15 1.08-0.98zm-8.07-12.28l0.06-0.33 0.04-0.46 0.15-1.68 0.1-1.78 0.09-2.47-0.15-2.15-0.04-0.29-0.04-0.23-1.32-2.2c-0.64-0.64-1.66-0.98-3.12-0.98q-2.58 0.01-4.84 2.2-2.28 2.2-3.33 10.37z"/>
				<path id="&lt;Path&gt;" class="s1" d="m402.53 316.36l1.53 1.43c-2.45 2.6-5.26 4.67-8.48 6.13q-4.8 2.14-10.25 2.14c-5.96 0-10.55-1.79-13.71-5.37q-4.8-5.33-3.86-12.56c0.73-5.79 2.81-10.16 6.24-13.19 3.45-3.05 7.11-5.05 10.94-6.12 1.29-0.33 2.54-0.63 3.77-0.77q1.85-0.26 3.49-0.26l1.34 0.05 1.34 0.12c2.87 0.33 5.45 1.18 7.69 2.61q3.38 2.13 2.92 5.82-0.28 2.04-1.41 3.06l-2.3 1.47-2.08 0.42-1.15 0.06q-3.9 0.02-4.25-2.46c-0.23-1.64-0.21-3.54 0.07-5.63l-0.49-1.91-1.56-0.94-0.68-0.19-0.65-0.02c-2.22 0-4.01 0.76-5.26 2.26-1.27 1.53-2.26 3.18-2.89 4.97-0.37 1.16-0.72 2.28-0.96 3.36l-0.5 2.62c-0.67 5.49 0.02 9.8 2.13 12.85q3.16 4.54 8.56 4.54 3.69-0.01 6-1.25 2.2-1.27 3.94-2.73l0.32-0.22 0.2-0.19z"/>
				<path id="&lt;Path&gt;" class="s1" d="m454.15 323.14l-0.23 1.87h-21.77l0.27-1.87q2.31-0.1 3.44-1.17c0.79-0.69 1.26-1.79 1.45-3.24l2.41-19.14 0.12-1.12 0.04-1.45-1-2.64c-0.61-0.81-1.75-1.24-3.41-1.24h-0.37l-0.39 0.12-2.71 0.82-2.49 1.45-1.65 1.3-0.69 0.87-2.65 20.93-0.09 0.65v0.55l0.71 2.14c0.53 0.68 1.63 1.08 3.33 1.26l-0.21 1.78h-22.32l0.23-1.87 0.32 0.01 0.32-0.01c1.45-0.25 2.59-0.68 3.36-1.18 0.79-0.56 1.29-1.7 1.5-3.49l5.14-40.28c0.16-1.6 0.05-2.71-0.48-3.15q-0.79-0.79-2.85-1.18l-0.5-0.05-0.53-0.07 0.28-2h17.76l-2.82 22.27 2.61-2.06 2.49-1.66c1.46-0.86 2.93-1.44 4.36-1.8 1.53-0.36 3-0.55 4.57-0.55l1.82 0.11 1.91 0.36c2.1 0.48 3.93 1.5 5.52 3.17 1.59 1.68 2.19 4.11 1.74 7.41l-2.5 19.4-0.06 1.04 0.06 1.16 1.02 1.81q0.79 0.82 2.94 0.83z"/>
			</g>
		</g>
	</g>
</svg>